<?xml version="1.0" encoding="UTF-8"?>
<svg version="1.1" xmlns="http://www.w3.org/2000/svg" width="512" height="512">
<path d="M0 0 C1.13214432 -0.00087616 2.26428864 -0.00175232 3.43074036 -0.00265503 C7.17026935 0.00152279 10.90800143 0.04818921 14.6472168 0.09521484 C17.24080933 0.10640616 19.83441454 0.11494664 22.42802429 0.12094116 C28.55516005 0.1415036 34.68155499 0.18878203 40.80841178 0.2490381 C47.78532915 0.3161611 54.76227769 0.34910656 61.7394377 0.37921071 C76.08794927 0.44188403 90.43591951 0.54738263 104.78393555 0.68115234 C103.84548091 1.94338902 102.90547802 3.20447466 101.96484375 4.46508789 C101.44154984 5.16748093 100.91825592 5.86987396 100.37910461 6.59355164 C98.03034615 9.66737618 95.51459677 12.58045443 92.97143555 15.49365234 C89.35039707 19.67796347 85.76975298 23.88261245 82.28393555 28.18115234 C78.34950299 33.02791709 74.29838981 37.76394489 70.22314453 42.49194336 C67.21148545 45.99350536 64.25334605 49.52901791 61.34643555 53.11865234 C57.20397175 58.22343077 52.90274456 63.17737916 48.58325195 68.13183594 C44.66131451 72.6407456 40.8535444 77.22822251 37.0925293 81.87255859 C33.86464201 85.79954837 30.54162133 89.64197294 27.22290039 93.4921875 C24.21135524 96.99369487 21.25327346 100.52910755 18.34643555 104.11865234 C14.74757187 108.55354968 11.03653842 112.8767595 7.28393555 117.18115234 C2.76159423 122.36999877 -1.67150624 127.61384444 -6.00512695 132.96240234 C-8.57178036 136.11856978 -11.17161995 139.24575488 -13.77856445 142.36865234 C-14.22095459 142.89869873 -14.66334473 143.42874512 -15.11914062 143.97485352 C-16.15104112 145.2106268 -17.18348946 146.44594259 -18.21606445 147.68115234 C-16.78727081 151.6659697 -14.87786933 154.9084785 -12.50512695 158.40771484 C-12.14087616 158.94852692 -11.77662537 159.48933899 -11.40133667 160.04653931 C-10.62216376 161.20292511 -9.84103104 162.35799243 -9.05810547 163.51184082 C-6.99863636 166.54816343 -4.95469436 169.59488303 -2.91137695 172.64208984 C-2.50506042 173.24762695 -2.0987439 173.85316406 -1.68011475 174.47705078 C1.73057875 179.57296919 5.03499269 184.7305554 8.28393555 189.93115234 C11.98739794 195.85233882 15.76029607 201.71018293 19.65625 207.50634766 C23.81231487 213.69792042 27.89358315 219.93788277 31.97143555 226.18115234 C32.52013809 227.02107224 32.52013809 227.02107224 33.07992554 227.87796021 C38.76594812 236.58278696 44.44482821 245.29227869 50.12304688 254.00219727 C56.94745219 264.46903804 63.78715815 274.92586492 70.62670898 285.3828125 C73.47307781 289.73483183 76.3188694 294.08722841 79.16455078 298.43969727 C80.57539807 300.59749238 81.98636776 302.75520747 83.39746094 304.9128418 C86.63341297 309.86100095 89.8685197 314.80970322 93.09950256 319.7611084 C94.93128514 322.56813475 96.7639251 325.37460111 98.59643555 328.18115234 C99.29824951 329.256875 100.00006348 330.33259766 100.72314453 331.44091797 C103.95999698 336.39457717 107.21226125 341.33584868 110.51831055 346.24365234 C111.08445068 347.08476562 111.65059082 347.92587891 112.23388672 348.79248047 C113.27923667 350.34095949 114.32863658 351.8867152 115.3828125 353.42919922 C118.78393555 358.46288551 118.78393555 358.46288551 118.78393555 360.68115234 C105.23224828 360.93624033 91.68113372 361.13158228 78.12753296 361.25108624 C71.8335886 361.30844939 65.54128879 361.38622379 59.24829102 361.51098633 C53.17271833 361.63068176 47.09872509 361.69631366 41.02206421 361.72480202 C38.70623913 361.74509732 36.39049874 361.78473301 34.0753479 361.84418297 C15.92575776 362.29162084 15.92575776 362.29162084 10.64471436 358.32072449 C8.56092868 355.50258804 7.15933533 352.89309736 5.78393555 349.68115234 C4.81503082 348.13210426 3.82460374 346.59598173 2.79956055 345.08349609 C1.87450347 343.5971906 0.95268709 342.1088638 0.03393555 340.61865234 C-3.85525294 334.38868585 -7.80894295 328.21563087 -11.90356445 322.11865234 C-16.74699599 314.90199546 -21.52721595 307.64628244 -26.27856445 300.36865234 C-26.99359131 299.27351318 -27.70861816 298.17837402 -28.4453125 297.05004883 C-29.55731544 295.34680136 -30.66928001 293.64352891 -31.78111267 291.94017029 C-35.68639489 285.95822598 -39.60206532 279.98310281 -43.5184021 274.00839233 C-46.69064121 269.16859576 -49.86159353 264.32795577 -53.03271484 259.48742676 C-53.82418723 258.27931691 -54.61569134 257.07122785 -55.40722656 255.86315918 C-57.73067 252.3169637 -60.05336395 248.77027943 -62.375 245.22290039 C-63.42375789 243.62078132 -64.47321679 242.01912119 -65.52270508 240.41748047 C-69.80574969 233.87121189 -74.03221026 227.29125247 -78.21606445 220.68115234 C-81.22288609 222.00825095 -83.0877827 223.37161023 -85.2043457 225.87646484 C-85.74639648 226.51068359 -86.28844727 227.14490234 -86.84692383 227.79833984 C-87.40186523 228.46091797 -87.95680664 229.12349609 -88.52856445 229.80615234 C-89.62859776 231.10061621 -90.72885919 232.39488625 -91.8293457 233.68896484 C-92.3468637 234.31493057 -92.86438169 234.9408963 -93.39758205 235.58583069 C-95.21606445 237.68115234 -95.21606445 237.68115234 -97.04688358 239.41795349 C-101.74388471 244.03959378 -103.02977548 247.42619401 -103.15046692 253.9745636 C-103.13465073 255.02113632 -103.11883453 256.06770905 -103.10253906 257.14599609 C-103.1187027 258.83023933 -103.1187027 258.83023933 -103.13519287 260.54850769 C-103.16247926 264.23923258 -103.14074499 267.92792252 -103.1184082 271.61865234 C-103.12779556 274.18555974 -103.14025474 276.75245758 -103.15565491 279.31933594 C-103.18457913 285.37189746 -103.18265416 291.42372 -103.16558033 297.4763031 C-103.14612667 305.04859978 -103.17421823 312.62062749 -103.20239258 320.19287109 C-103.25240057 333.68925024 -103.23090077 347.18434307 -103.21606445 360.68115234 C-132.25606445 360.68115234 -161.29606445 360.68115234 -191.21606445 360.68115234 C-191.21606445 320.86865234 -191.21606445 320.86865234 -191.15356445 308.35766602 C-191.17344879 304.61492799 -191.17344879 304.61492799 -191.20385742 300.87226868 C-191.21225797 299.22192853 -191.20518766 297.5714606 -191.18530273 295.92121887 C-191.05986336 284.30948032 -192.09693944 277.60566252 -200.21606445 268.68115234 C-219.89710009 236.53967666 -211.02293771 191.57260724 -203.12670898 157.37695312 C-197.45070101 134.34118673 -197.45070101 134.34118673 -193.18185425 124.23200989 C-191.81259319 119.19773535 -191.9075915 114.36358989 -191.8972168 109.16796875 C-191.88717117 108.01617126 -191.87712555 106.86437378 -191.86677551 105.67767334 C-191.8359418 101.87935881 -191.81890754 98.08111478 -191.80200195 94.28271484 C-191.78329049 91.64569492 -191.7637171 89.00868098 -191.74331665 86.37167358 C-191.69660314 80.14578048 -191.65982322 73.91987022 -191.62664378 67.69389188 C-191.58461232 59.90703083 -191.52926492 52.12027164 -191.47387695 44.33349609 C-191.37517713 30.4494375 -191.29656486 16.56535486 -191.21606445 2.68115234 C-162.17606445 2.68115234 -133.13606445 2.68115234 -103.21606445 2.68115234 C-102.88606445 37.33115234 -102.55606445 71.98115234 -102.21606445 107.68115234 C-96.87380293 101.7453062 -91.7349936 95.9160875 -86.73168945 89.73193359 C-83.78681496 86.16058736 -80.75889469 82.66900747 -77.71606445 79.18115234 C-73.98191278 74.89908943 -70.29147341 70.597834 -66.71606445 66.18115234 C-62.63849319 61.14766693 -58.41100531 56.25781925 -54.15795898 51.37304688 C-49.23728795 45.71850355 -44.38825346 40.00643148 -39.55883789 34.27392578 C-37.28185003 31.57300418 -34.99858911 28.8773947 -32.71606445 26.18115234 C-31.80718842 25.10695209 -30.89833429 24.03273331 -29.98950195 22.95849609 C-28.07865732 20.70016334 -26.16709779 18.44243794 -24.25512695 16.18505859 C-23.7672168 15.60884766 -23.27930664 15.03263672 -22.77661133 14.43896484 C-21.85362381 13.34896054 -20.93046122 12.25910446 -20.00708008 11.16943359 C-17.89813843 8.67850709 -15.98959576 6.31717616 -14.2603302 3.53793335 C-10.49428183 -0.93009761 -5.43138407 -0.10983681 0 0 Z " fill="#5FBB55" transform="translate(302.216064453125,75.31884765625)"/>
<path d="M0 0 C15.25491677 6.84982163 22.12521551 31.17839162 27.58984375 45.4453125 C43.35367823 87.76172724 58.77278847 142.72087174 44 187 C43.77538086 187.67579102 43.55076172 188.35158203 43.31933594 189.04785156 C38.9586096 201.58414635 30.99011221 213.33003641 20 221 C18.68 221.33 17.36 221.66 16 222 C16 245.43 16 268.86 16 293 C1.48 293 -13.04 293 -28 293 C-27.979375 287.28042969 -27.95875 281.56085938 -27.9375 275.66796875 C-27.94223296 272.02656768 -27.94932564 268.38547283 -27.96484375 264.74414062 C-27.98920866 258.9747144 -28.00522492 253.20617424 -27.96923828 247.43676758 C-27.94074609 242.78076733 -27.95160262 238.12631455 -27.98880005 233.47039223 C-27.99619925 231.70156473 -27.98984351 229.93262011 -27.96896362 228.16390038 C-27.8436128 216.58577865 -28.9047765 209.89823773 -37 201 C-56.70294517 168.82274343 -47.79155475 123.82226509 -39.87109375 89.59912109 C-22.17116288 16.4678484 -22.17116288 16.4678484 0 0 Z " fill="#008A45" transform="translate(139,143)"/>
<path d="M0 0 C6 2 6 2 8.23828125 2.921875 C16.97103328 6.40839747 22.59241235 3.60325185 31 0 C31 23.1 31 46.2 31 70 C20.77 70 10.54 70 0 70 C0 46.9 0 23.8 0 0 Z " fill="#016737" transform="translate(124,366)"/>
<path d="M0 0 C2.64 1.98 5.28 3.96 8 6 C8.97829269 6.63995911 9.95658539 7.27991821 10.96452332 7.93927002 C13 10 13 10 13.60127258 13.17645264 C13.59016953 14.42887756 13.57906647 15.68130249 13.56762695 16.97167969 C13.56872215 18.01131111 13.56872215 18.01131111 13.56983948 19.07194519 C13.56636417 21.35605966 13.5275116 23.63811823 13.48828125 25.921875 C13.47895278 27.50798427 13.47183682 29.09410798 13.46684265 30.68023682 C13.44777514 34.84975134 13.39867763 39.01839141 13.34332275 43.18756104 C13.29212425 47.44393077 13.2693274 51.70044217 13.24414062 55.95703125 C13.19055732 64.30513302 13.1026246 72.6523569 13 81 C8.71 81 4.42 81 0 81 C0 54.27 0 27.54 0 0 Z " fill="#5FBB55" transform="translate(111,355)"/>
</svg>
